REM MD5 faf550510ec4352c460c79269fb56202
FILE "Official U.S. PlayStation Magazine Demo Disc 13 (USA).bin" BINARY
  TRACK 01 MODE2/2352
    INDEX 01 00:00:00
  TRACK 02 AUDIO
    INDEX 00 49:40:11
    INDEX 01 49:42:11
  TRACK 03 AUDIO
    INDEX 00 51:22:11
    INDEX 01 51:24:11
  TRACK 04 AUDIO
    INDEX 00 53:50:05
    INDEX 01 53:52:05
  TRACK 05 AUDIO
    INDEX 00 54:12:60
    INDEX 01 54:14:60
  TRACK 06 AUDIO
    INDEX 00 56:43:54
    INDEX 01 56:45:54
REM LEADOUT 56:51:50
